<svg width="137" height="40" viewBox="0 0 137 40" fill="none" xmlns="http://www.w3.org/2000/svg">
<path d="M7.80682 27H3.54545L10.7614 12.4545H16.1591L18.5455 27H14.2841L12.8636 16.4602H12.75L7.80682 27ZM7.97727 21.2614H15.9886L15.4773 24.2159H7.46591L7.97727 21.2614ZM26.3384 12.4545L23.9237 27H20.0032L22.418 12.4545H26.3384ZM25.9496 27L27.7678 16.0909H31.4893L31.1484 18.1648H31.2621C31.5982 17.483 32.0741 16.9432 32.6896 16.5455C33.3052 16.1477 33.9941 15.9489 34.7564 15.9489C35.5187 15.9489 36.1437 16.1525 36.6314 16.5597C37.1191 16.9621 37.3653 17.4972 37.37 18.1648H37.4837C37.7772 17.4972 38.2578 16.9621 38.9254 16.5597C39.593 16.1525 40.334 15.9489 41.1484 15.9489C42.1854 15.9489 42.9737 16.285 43.5135 16.9574C44.058 17.6297 44.2356 18.5246 44.0462 19.642L42.8246 27H38.9041L39.9837 20.6364C40.05 20.1581 39.9837 19.7841 39.7848 19.5142C39.5859 19.2396 39.2829 19.1023 38.8757 19.1023C38.4732 19.1023 38.1323 19.2396 37.853 19.5142C37.5784 19.7841 37.4079 20.1581 37.3416 20.6364L36.2621 27H32.5121L33.5916 20.6364C33.6579 20.1581 33.5916 19.7841 33.3928 19.5142C33.1939 19.2396 32.8909 19.1023 32.4837 19.1023C32.2185 19.1023 31.977 19.1638 31.7592 19.2869C31.5462 19.41 31.3686 19.5876 31.2266 19.8196C31.0893 20.0469 30.9969 20.3191 30.9496 20.6364L29.87 27H25.9496ZM49.957 27.1989C48.7733 27.1989 47.7979 26.9645 47.0309 26.4957C46.2686 26.0223 45.7335 25.3641 45.4258 24.5213C45.118 23.6738 45.0565 22.6913 45.2411 21.5739C45.4258 20.4564 45.8117 19.4763 46.3988 18.6335C46.9859 17.786 47.7411 17.1278 48.6644 16.6591C49.5877 16.1856 50.6436 15.9489 51.832 15.9489C53.011 15.9489 53.9817 16.1856 54.744 16.6591C55.511 17.1278 56.0484 17.786 56.3562 18.6335C56.6687 19.4763 56.7326 20.4564 56.5479 21.5739C56.3633 22.6913 55.975 23.6738 55.3832 24.5213C54.7913 25.3641 54.0337 26.0223 53.1104 26.4957C52.1919 26.9645 51.1407 27.1989 49.957 27.1989ZM50.44 24.3011C50.7809 24.3011 51.091 24.1899 51.3704 23.9673C51.6545 23.7448 51.896 23.4276 52.0948 23.0156C52.2984 22.6037 52.4476 22.1136 52.5423 21.5455C52.637 20.9725 52.6512 20.4825 52.5849 20.0753C52.5186 19.6634 52.3813 19.3461 52.1729 19.1236C51.9646 18.901 51.69 18.7898 51.3491 18.7898C51.0082 18.7898 50.6957 18.901 50.4116 19.1236C50.1275 19.3461 49.886 19.6634 49.6871 20.0753C49.4883 20.4825 49.3415 20.9725 49.2468 21.5455C49.1521 22.1136 49.1355 22.6037 49.1971 23.0156C49.2634 23.4276 49.4007 23.7448 49.609 23.9673C49.8221 24.1899 50.0991 24.3011 50.44 24.3011ZM68.3945 19.642H64.8718C64.8907 19.4148 64.8505 19.2206 64.7511 19.0597C64.6516 18.8987 64.512 18.7756 64.332 18.6903C64.1568 18.6051 63.958 18.5625 63.7354 18.5625C63.3472 18.5625 62.9944 18.6501 62.6772 18.8253C62.36 18.9957 62.1824 19.2206 62.1445 19.5C62.1209 19.6089 62.1564 19.7107 62.2511 19.8054C62.3458 19.9001 62.5943 19.9877 62.9968 20.0682L65.1559 20.4659C66.2354 20.6648 67.0214 21.027 67.5138 21.5526C68.011 22.0734 68.1909 22.7623 68.0536 23.6193C67.9258 24.3627 67.5991 25.0019 67.0735 25.5369C66.5479 26.072 65.8803 26.4839 65.0707 26.7727C64.2657 27.0568 63.3756 27.1989 62.4002 27.1989C60.6815 27.1989 59.3936 26.8556 58.5366 26.169C57.6843 25.4825 57.296 24.5852 57.3718 23.4773H61.1786C61.1881 23.8324 61.3065 24.0999 61.5337 24.2798C61.7657 24.455 62.0735 24.5473 62.457 24.5568C62.8737 24.571 63.2383 24.4882 63.5508 24.3082C63.8633 24.1236 64.0385 23.8939 64.0763 23.6193C64.0906 23.4631 64.0219 23.3447 63.8704 23.2642C63.7236 23.1837 63.4419 23.1032 63.0252 23.0227L61.1502 22.6818C60.0707 22.4877 59.2847 22.0994 58.7923 21.517C58.2998 20.9299 58.1294 20.1818 58.2809 19.2727C58.404 18.5483 58.6976 17.9399 59.1616 17.4474C59.6303 16.955 60.2459 16.5833 61.0082 16.3324C61.7705 16.0767 62.6512 15.9489 63.6502 15.9489C65.2837 15.9489 66.5195 16.2779 67.3576 16.9361C68.2004 17.5895 68.546 18.4915 68.3945 19.642ZM77.3114 16.0909L76.8285 18.9318H69.641L70.1239 16.0909H77.3114ZM71.9421 13.4773H75.8626L74.2006 23.4915C74.177 23.643 74.1817 23.7708 74.2148 23.875C74.248 23.9744 74.3143 24.0502 74.4137 24.1023C74.5179 24.1496 74.6552 24.1733 74.8256 24.1733C74.9393 24.1733 75.079 24.1591 75.2447 24.1307C75.4104 24.0975 75.5359 24.0739 75.6211 24.0597L75.7347 26.8153C75.5359 26.8722 75.2683 26.9361 74.9322 27.0071C74.6007 27.0829 74.2148 27.1326 73.7745 27.1562C72.8559 27.1989 72.1078 27.1018 71.5302 26.8651C70.9573 26.6283 70.5595 26.259 70.337 25.7571C70.1192 25.2505 70.0813 24.6184 70.2234 23.8608L71.9421 13.4773ZM86.7024 27H81.0206L83.4354 12.4545H88.8899C90.3861 12.4545 91.6361 12.7552 92.6399 13.3565C93.6437 13.9579 94.3563 14.8172 94.7777 15.9347C95.1991 17.0521 95.282 18.3826 95.0263 19.9261C94.7801 21.4129 94.2805 22.6842 93.5277 23.7401C92.7796 24.7959 91.8232 25.6032 90.6584 26.1619C89.4983 26.7206 88.1797 27 86.7024 27ZM85.5234 23.6477H86.9581C87.6778 23.6477 88.3194 23.5223 88.8828 23.2713C89.451 23.0156 89.9245 22.5895 90.3033 21.9929C90.6868 21.3916 90.9638 20.5701 91.1342 19.5284C91.2952 18.5436 91.2905 17.7836 91.12 17.2486C90.9496 16.7088 90.6252 16.3348 90.147 16.1264C89.6688 15.9134 89.0509 15.8068 88.2933 15.8068H86.8303L85.5234 23.6477ZM100.973 27.1989C99.7889 27.1989 98.8136 26.9645 98.0465 26.4957C97.2842 26.0223 96.7492 25.3641 96.4414 24.5213C96.1336 23.6738 96.0721 22.6913 96.2567 21.5739C96.4414 20.4564 96.8273 19.4763 97.4144 18.6335C98.0015 17.786 98.7567 17.1278 99.68 16.6591C100.603 16.1856 101.659 15.9489 102.848 15.9489C104.027 15.9489 104.997 16.1856 105.76 16.6591C106.527 17.1278 107.064 17.786 107.372 18.6335C107.684 19.4763 107.748 20.4564 107.564 21.5739C107.379 22.6913 106.991 23.6738 106.399 24.5213C105.807 25.3641 105.049 26.0223 104.126 26.4957C103.208 26.9645 102.156 27.1989 100.973 27.1989ZM101.456 24.3011C101.797 24.3011 102.107 24.1899 102.386 23.9673C102.67 23.7448 102.912 23.4276 103.11 23.0156C103.314 22.6037 103.463 22.1136 103.558 21.5455C103.653 20.9725 103.667 20.4825 103.6 20.0753C103.534 19.6634 103.397 19.3461 103.189 19.1236C102.98 18.901 102.706 18.7898 102.365 18.7898C102.024 18.7898 101.711 18.901 101.427 19.1236C101.143 19.3461 100.902 19.6634 100.703 20.0753C100.504 20.4825 100.357 20.9725 100.262 21.5455C100.168 22.1136 100.151 22.6037 100.213 23.0156C100.279 23.4276 100.416 23.7448 100.625 23.9673C100.838 24.1899 101.115 24.3011 101.456 24.3011ZM113.217 20.8636L112.194 27H108.274L110.092 16.0909H113.814L113.473 18.1648H113.586C113.932 17.4687 114.436 16.9266 115.099 16.5384C115.767 16.1454 116.503 15.9489 117.308 15.9489C118.08 15.9489 118.721 16.1241 119.233 16.4744C119.744 16.8248 120.106 17.3078 120.319 17.9233C120.532 18.5388 120.57 19.2443 120.433 20.0398L119.268 27H115.348L116.37 20.8636C116.46 20.3239 116.394 19.9001 116.172 19.5923C115.954 19.2846 115.594 19.1307 115.092 19.1307C114.775 19.1307 114.484 19.2017 114.218 19.3438C113.958 19.4811 113.74 19.6799 113.565 19.9403C113.395 20.196 113.279 20.5038 113.217 20.8636ZM126.374 27.1989C125.209 27.1989 124.243 26.9763 123.476 26.5312C122.709 26.0814 122.169 25.4375 121.857 24.5994C121.544 23.7566 121.488 22.7481 121.686 21.5739C121.876 20.447 122.266 19.4621 122.858 18.6193C123.455 17.7765 124.205 17.1207 125.11 16.652C126.019 16.1832 127.037 15.9489 128.164 15.9489C128.988 15.9489 129.71 16.0767 130.33 16.3324C130.955 16.5881 131.464 16.9598 131.857 17.4474C132.25 17.9351 132.515 18.5246 132.652 19.2159C132.794 19.9025 132.794 20.679 132.652 21.5455L132.51 22.4545H122.766L123.107 20.2955H129.243C129.291 19.983 129.26 19.7083 129.151 19.4716C129.047 19.2301 128.879 19.0431 128.647 18.9105C128.419 18.7732 128.145 18.7045 127.823 18.7045C127.501 18.7045 127.198 18.7732 126.914 18.9105C126.634 19.0478 126.395 19.2396 126.196 19.4858C126.002 19.732 125.872 20.0208 125.806 20.3523L125.38 22.625C125.323 22.9754 125.344 23.2879 125.444 23.5625C125.543 23.8371 125.716 24.0526 125.962 24.2088C126.208 24.3651 126.525 24.4432 126.914 24.4432C127.179 24.4432 127.43 24.4077 127.667 24.3366C127.908 24.2609 128.121 24.152 128.306 24.0099C128.495 23.8632 128.647 23.6856 128.76 23.4773H132.34C132.084 24.2348 131.679 24.893 131.125 25.4517C130.576 26.0057 129.899 26.4366 129.094 26.7443C128.294 27.0473 127.387 27.1989 126.374 27.1989Z" fill="#0016DA"/>
</svg>
